<svg xmlns="http://www.w3.org/2000/svg" viewBox="0 0 12.44 10">
  <title>archive-folder-test</title>
  <polygon points="5.01 2.26 5.22 2.98 5.6 2.98 5.6 2.26 5.01 2.26" fill="none"/>
  <polygon points="8.7 5.78 8.7 0.6 6.19 0.6 6.19 5.78 4.3 5.78 7.45 8.93 10.59 5.78 8.7 5.78" fill="none"/>
  <path d="M9.3,3H11a.15.15,0,0,1,.16.14h0l.34,3.62.33-4.49H9.3Z" transform="translate(0 0)" fill="none"/>
  <path d="M12.35,1.73a.33.33,0,0,0-.23-.1H9.3v-1A.58.58,0,0,0,8.77,0H6.18A.58.58,0,0,0,5.6.58h0v1H4.83l-.12-.34a.16.16,0,0,0-.16-.12H1.32a.17.17,0,0,0-.16.12L.65,3H.17A.22.22,0,0,0,0,3a.29.29,0,0,0,0,.13L.55,9.85A.17.17,0,0,0,.72,10H11.58a.16.16,0,0,0,.11-.05.3.3,0,0,0,.17-.25L12.43,2A.3.3,0,0,0,12.35,1.73ZM6.19,5.78V.6H8.7V5.78h1.89L7.45,8.93,4.3,5.78ZM5.6,2.26V3H5.23L5,2.26Zm5.85,4.49-.34-3.62A.15.15,0,0,0,11,3H9.3V2.26h2.48Z" transform="translate(0 0)" fill="#fff"/>
</svg>
