<svg id="svg2" xmlns="http://www.w3.org/2000/svg" viewBox="0 0 12.42 10"><title>jstree-folder-icon</title><polygon points="5.59 2.98 5.59 2.26 5 2.26 5.21 2.98 5.59 2.98" fill="none"/><polygon points="7.44 8.93 10.58 5.78 8.69 5.78 8.69 0.6 6.18 0.6 6.18 5.78 4.29 5.78 7.44 8.93" fill="none"/><path d="M9.29,3h1.65a.15.15,0,0,1,.16.15l.34,3.62.33-4.49H9.29Z" fill="none"/><path d="M12.34,1.73a.33.33,0,0,0-.23-.1H9.29v-1A.58.58,0,0,0,8.7,0H6.17a.58.58,0,0,0-.58.59v1H4.82L4.7,1.25a.16.16,0,0,0-.16-.12H1.31a.16.16,0,0,0-.16.12L.64,3H.16A.18.18,0,0,0,0,3a.18.18,0,0,0,0,.13L.54,9.85A.17.17,0,0,0,.71,10H11.57a.16.16,0,0,0,.11-.05.3.3,0,0,0,.17-.25L12.42,2A.31.31,0,0,0,12.34,1.73ZM6.18,5.78V.6H8.69V5.78h1.89L7.44,8.93,4.29,5.78ZM5.59,2.26V3H5.22L5,2.26Zm5.85,4.49L11.1,3.13A.15.15,0,0,0,10.94,3H9.29V2.26h2.48Z" fill="#fff"/></svg>