<svg id="Ebene_1" data-name="Ebene 1" xmlns="http://www.w3.org/2000/svg" viewBox="0 0 15.02 18"><title>trash</title><path d="M15,2.57h0s0,0,0-.08C15,.78,11.13,0,7.51,0S0,.78,0,2.49c0,0,0,.06,0,.09H0l0,.1s0,.09,0,.13L2.54,16c0,1.45,2.51,2,4.9,2h.14c.84,0,5-.14,5-2L15,2.81s0-.07,0-.1ZM7.51,1C11.77,1,14,2,14,2.47v0C13.94,3,11.74,4,7.51,4S1.08,3,1,2.51v0C1,2,3.25,1,7.51,1ZM11.6,16c0,.36-1.34,1-4,1s-4-.61-4.05-1.06L1.28,4A16.13,16.13,0,0,0,7.51,5a16.15,16.15,0,0,0,6.24-1Z" transform="translate(0 0)"/></svg>